<svg width="153" height="40" viewBox="0 0 153 40" fill="none" xmlns="http://www.w3.org/2000/svg">
<path d="M52.7016 28.568C51.5336 29.016 50.3336 29.24 49.1016 29.24C47.8056 29.24 46.8136 28.976 46.1256 28.448C45.4376 27.904 44.9976 27.192 44.8056 26.312C44.6136 25.416 44.5976 24.44 44.7576 23.384L44.9496 22.184C45.1896 20.664 45.7576 19.432 46.6536 18.488C47.5656 17.544 48.7496 17.072 50.2056 17.072C50.8936 17.072 51.5256 17.192 52.1016 17.432C52.6936 17.672 53.1656 18.04 53.5176 18.536C53.8856 19.032 54.0696 19.664 54.0696 20.432C54.0696 20.848 54.0056 21.32 53.8776 21.848C53.7656 22.36 53.5256 22.936 53.1576 23.576H46.1976C46.0856 24.36 46.0856 25.088 46.1976 25.76C46.3096 26.416 46.5976 26.944 47.0616 27.344C47.5416 27.728 48.2456 27.92 49.1736 27.92C50.2296 27.92 51.3176 27.72 52.4376 27.32L52.7016 28.568ZM46.4136 22.184L46.3896 22.304H52.1736C52.3656 21.984 52.4936 21.672 52.5576 21.368C52.6216 21.048 52.6536 20.76 52.6536 20.504C52.6536 19.768 52.4056 19.232 51.9096 18.896C51.4296 18.56 50.8456 18.392 50.1576 18.392C49.1656 18.392 48.3416 18.728 47.6856 19.4C47.0296 20.072 46.6056 21 46.4136 22.184ZM56.5204 22.544L56.7604 21.272H63.0964L62.8564 22.544H56.5204ZM72.5289 18.44C72.1929 18.44 71.8009 18.52 71.3529 18.68C70.9209 18.824 70.4249 19.104 69.8649 19.52C69.3209 19.936 68.6969 20.552 67.9929 21.368L66.6489 29H65.2089L67.2729 17.312H68.6409L68.2569 19.544C69.2009 18.536 70.0409 17.872 70.7769 17.552C71.5129 17.232 72.1769 17.072 72.7689 17.072C73.5369 17.072 74.1609 17.296 74.6409 17.744C75.1209 18.192 75.4089 18.816 75.5049 19.616C76.4649 18.576 77.3289 17.896 78.0969 17.576C78.8809 17.24 79.5769 17.072 80.1849 17.072C81.1769 17.072 81.9209 17.44 82.4169 18.176C82.9289 18.912 83.0729 19.904 82.8489 21.152L81.4569 29H80.0169L81.3609 21.416C81.5369 20.424 81.4969 19.68 81.2409 19.184C80.9849 18.688 80.5529 18.44 79.9449 18.44C79.6089 18.44 79.2169 18.52 78.7689 18.68C78.3369 18.824 77.8409 19.104 77.2809 19.52C76.7209 19.936 76.0889 20.552 75.3849 21.368L74.0409 29H72.6009L73.9449 21.416C74.1209 20.424 74.0809 19.68 73.8249 19.184C73.5689 18.688 73.1369 18.44 72.5289 18.44ZM95.4803 29.12C94.7443 29.12 94.2083 28.912 93.8723 28.496C93.5363 28.08 93.3843 27.536 93.4163 26.864C92.7603 27.696 92.0883 28.304 91.4003 28.688C90.7123 29.056 90.0243 29.24 89.3363 29.24C88.5523 29.24 87.9123 28.992 87.4163 28.496C86.9203 28 86.5763 27.328 86.3843 26.48C86.1923 25.632 86.1683 24.68 86.3123 23.624L86.4803 22.4C86.7043 20.784 87.2883 19.496 88.2323 18.536C89.1923 17.56 90.4003 17.072 91.8563 17.072C92.5923 17.072 93.3203 17.2 94.0403 17.456C94.7603 17.712 95.4883 18.072 96.2243 18.536L94.9283 25.856C94.8163 26.496 94.8163 26.984 94.9283 27.32C95.0403 27.64 95.3043 27.8 95.7203 27.8H96.1043L95.8643 29.12H95.4803ZM87.8242 23.624C87.6483 24.952 87.7123 26.008 88.0163 26.792C88.3203 27.576 88.8403 27.968 89.5763 27.968C90.1363 27.968 90.7683 27.728 91.4723 27.248C92.1763 26.752 92.9203 25.896 93.7043 24.68L94.6883 19.184C93.6803 18.656 92.7523 18.392 91.9043 18.392C90.7843 18.392 89.8883 18.768 89.2163 19.52C88.5603 20.256 88.1523 21.216 87.9923 22.4L87.8242 23.624ZM103.231 13.976H101.479L101.767 12.224H103.519L103.231 13.976ZM100.399 29H98.9589L101.023 17.312H102.463L100.399 29ZM105.462 26.36L108.126 11.24H109.566L106.926 26.312C106.814 26.888 106.806 27.28 106.902 27.488C106.998 27.696 107.294 27.8 107.79 27.8H108.174L107.934 29.12H107.55C106.638 29.12 106.022 28.888 105.702 28.424C105.382 27.96 105.302 27.272 105.462 26.36Z" fill="white"/>
<path d="M29 18L21 23L13 18V16L21 21L29 16M29 14H13C11.89 14 11 14.89 11 16V28C11 28.5304 11.2107 29.0391 11.5858 29.4142C11.9609 29.7893 12.4696 30 13 30H29C29.5304 30 30.0391 29.7893 30.4142 29.4142C30.7893 29.0391 31 28.5304 31 28V16C31 15.4696 30.7893 14.9609 30.4142 14.5858C30.0391 14.2107 29.5304 14 29 14Z" fill="white"/>
</svg>
