<svg width="34" height="35" viewBox="0 0 34 35" fill="none" xmlns="http://www.w3.org/2000/svg">
<g clip-path="url(#clip0_4_24)">
<path d="M0.725557 17.2905C0.72476 20.2312 1.47701 23.1026 2.9074 25.6334L0.58876 34.2806L9.25239 31.9603C11.6486 33.2927 14.3334 33.9909 17.0618 33.9911H17.0689C26.0756 33.9911 33.4073 26.505 33.4111 17.3037C33.4128 12.845 31.7144 8.65232 28.6287 5.49797C25.5434 2.3439 21.4402 0.605978 17.0683 0.603943C8.06053 0.603943 0.729409 8.0896 0.72569 17.2905" fill="url(#paint0_linear_4_24)"/>
<path d="M0.142109 17.2851C0.14118 20.3316 0.920391 23.3057 2.40178 25.9271L0 34.8843L8.97427 32.4808C11.447 33.8579 14.231 34.5839 17.0639 34.585H17.0712C26.401 34.585 33.996 26.8297 34 17.299C34.0016 12.68 32.2421 8.33665 29.0461 5.0693C25.8497 1.80236 21.5997 0.00189922 17.0712 0C7.73978 0 0.145961 7.75426 0.142242 17.2851H0.142109ZM5.48648 25.4757L5.1514 24.9323C3.74279 22.6446 2.9993 20.0009 3.00037 17.2862C3.00342 9.3644 9.3152 2.91938 17.0765 2.91938C20.8351 2.92101 24.3674 4.4176 27.0242 7.13295C29.6808 9.84857 31.1427 13.4585 31.1417 17.2979C31.1383 25.2197 24.8264 31.6655 17.0712 31.6655H17.0656C14.5404 31.6641 12.0639 30.9715 9.90409 29.6625L9.39011 29.3512L4.06459 30.7773L5.48648 25.4755V25.4757Z" fill="url(#paint1_linear_4_24)"/>
<path d="M12.8401 10.0588C12.5232 9.33943 12.1897 9.32491 11.8883 9.3123C11.6416 9.30145 11.3595 9.30226 11.0776 9.30226C10.7955 9.30226 10.3372 9.41065 9.94979 9.84273C9.56197 10.2752 8.46919 11.3203 8.46919 13.446C8.46919 15.5717 9.98498 17.626 10.1963 17.9146C10.4079 18.2026 13.1225 22.7043 17.4219 24.4361C20.9951 25.8753 21.7223 25.5891 22.4978 25.5169C23.2734 25.445 25.0005 24.472 25.3528 23.4632C25.7055 22.4544 25.7055 21.5897 25.5997 21.409C25.494 21.229 25.2119 21.1209 24.7889 20.9049C24.3658 20.6888 22.2862 19.6435 21.8985 19.4993C21.5107 19.3553 21.2288 19.2834 20.9467 19.716C20.6646 20.1479 19.8545 21.1209 19.6076 21.409C19.361 21.6978 19.1141 21.7338 18.6912 21.5177C18.268 21.3009 16.9057 20.8452 15.2895 19.3734C14.032 18.2282 13.1831 16.814 12.9363 16.3813C12.6896 15.9494 12.9099 15.7153 13.122 15.5C13.3121 15.3064 13.5452 14.9955 13.7569 14.7433C13.9678 14.4909 14.0382 14.3109 14.1792 14.0228C14.3204 13.7344 14.2497 13.482 14.1441 13.2659C14.0382 13.0498 13.2162 10.9132 12.8401 10.059" fill="white"/>
</g>
<defs>
<linearGradient id="paint0_linear_4_24" x1="16.9999" y1="34.2806" x2="16.9999" y2="0.603943" gradientUnits="userSpaceOnUse">
<stop stop-color="#1FAF38"/>
<stop offset="1" stop-color="#60D669"/>
</linearGradient>
<linearGradient id="paint1_linear_4_24" x1="17" y1="34.8843" x2="17" y2="0" gradientUnits="userSpaceOnUse">
<stop stop-color="#F9F9F9"/>
<stop offset="1" stop-color="white"/>
</linearGradient>
<clipPath id="clip0_4_24">
<rect width="34" height="35" fill="white"/>
</clipPath>
</defs>
</svg>
