<svg width="153" height="40" viewBox="0 0 153 40" fill="none" xmlns="http://www.w3.org/2000/svg">
<path d="M49.8862 29.24C49.3422 29.24 48.7982 29.168 48.2542 29.024C47.7262 28.896 47.2062 28.704 46.6942 28.448L45.6862 34.112H44.2462L47.2222 17.312H48.5902L48.2062 19.544C48.8622 18.68 49.5422 18.056 50.2462 17.672C50.9662 17.272 51.6702 17.072 52.3582 17.072C53.1742 17.072 53.8382 17.32 54.3502 17.816C54.8622 18.312 55.2142 18.984 55.4062 19.832C55.5982 20.68 55.6222 21.632 55.4782 22.688L55.3102 23.912C55.0862 25.592 54.5022 26.904 53.5582 27.848C52.6302 28.776 51.4062 29.24 49.8862 29.24ZM52.1182 18.344C51.5422 18.344 50.8862 18.584 50.1502 19.064C49.4302 19.544 48.6782 20.4 47.8942 21.632L46.9102 27.128C47.9502 27.656 48.9262 27.92 49.8382 27.92C51.0222 27.92 51.9342 27.56 52.5742 26.84C53.2302 26.12 53.6382 25.144 53.7982 23.912L53.9662 22.688C54.1422 21.36 54.0702 20.304 53.7502 19.52C53.4462 18.736 52.9022 18.344 52.1182 18.344ZM65.8403 18.44C65.4883 18.44 65.0803 18.512 64.6163 18.656C64.1683 18.8 63.6563 19.08 63.0803 19.496C62.5203 19.912 61.8883 20.528 61.1843 21.344L59.8403 29H58.4003L61.5203 11.24H62.9603L61.5203 19.472C62.4643 18.48 63.3123 17.832 64.0643 17.528C64.8163 17.224 65.4883 17.072 66.0803 17.072C67.1203 17.072 67.8963 17.44 68.4083 18.176C68.9363 18.912 69.0883 19.904 68.8643 21.152L67.4723 29H66.0323L67.3763 21.416C67.5523 20.424 67.5043 19.68 67.2323 19.184C66.9603 18.688 66.4963 18.44 65.8403 18.44ZM82.0758 22.904L81.8838 24.104C81.6278 25.768 81.0438 27.04 80.1318 27.92C79.2198 28.8 78.0198 29.24 76.5318 29.24C75.4118 29.24 74.5078 28.984 73.8198 28.472C73.1318 27.96 72.6598 27.264 72.4038 26.384C72.1478 25.504 72.1078 24.504 72.2838 23.384L72.4758 22.184C72.7318 20.6 73.3078 19.352 74.2038 18.44C75.0998 17.528 76.2998 17.072 77.8038 17.072C78.9398 17.072 79.8518 17.336 80.5398 17.864C81.2278 18.392 81.6998 19.096 81.9558 19.976C82.2118 20.856 82.2518 21.832 82.0758 22.904ZM80.5638 22.904C80.7718 21.608 80.6438 20.536 80.1798 19.688C79.7318 18.824 78.9478 18.392 77.8278 18.392C76.7558 18.392 75.8918 18.728 75.2358 19.4C74.5958 20.072 74.1798 21 73.9878 22.184L73.7958 23.384C73.5878 24.744 73.7078 25.84 74.1558 26.672C74.6198 27.504 75.4038 27.92 76.5078 27.92C78.6678 27.92 79.9558 26.648 80.3718 24.104L80.5638 22.904ZM92.3716 18.44C92.0196 18.44 91.6116 18.512 91.1476 18.656C90.6996 18.8 90.1876 19.08 89.6116 19.496C89.0516 19.912 88.4196 20.528 87.7156 21.344L86.3716 29H84.9316L86.9956 17.312H88.3636L87.9556 19.568C88.9156 18.528 89.7796 17.856 90.5476 17.552C91.3316 17.232 92.0196 17.072 92.6116 17.072C93.6516 17.072 94.4276 17.44 94.9396 18.176C95.4676 18.912 95.6196 19.904 95.3956 21.152L94.0036 29H92.5636L93.9076 21.416C94.0836 20.424 94.0356 19.68 93.7636 19.184C93.4916 18.688 93.0276 18.44 92.3716 18.44ZM106.807 28.568C105.639 29.016 104.439 29.24 103.207 29.24C101.911 29.24 100.919 28.976 100.231 28.448C99.543 27.904 99.103 27.192 98.911 26.312C98.719 25.416 98.703 24.44 98.863 23.384L99.055 22.184C99.295 20.664 99.863 19.432 100.759 18.488C101.671 17.544 102.855 17.072 104.311 17.072C104.999 17.072 105.631 17.192 106.207 17.432C106.799 17.672 107.271 18.04 107.623 18.536C107.991 19.032 108.175 19.664 108.175 20.432C108.175 20.848 108.111 21.32 107.983 21.848C107.871 22.36 107.631 22.936 107.263 23.576H100.303C100.191 24.36 100.191 25.088 100.303 25.76C100.415 26.416 100.703 26.944 101.167 27.344C101.647 27.728 102.351 27.92 103.279 27.92C104.335 27.92 105.423 27.72 106.543 27.32L106.807 28.568ZM100.519 22.184L100.495 22.304H106.279C106.471 21.984 106.599 21.672 106.663 21.368C106.727 21.048 106.759 20.76 106.759 20.504C106.759 19.768 106.511 19.232 106.015 18.896C105.535 18.56 104.951 18.392 104.263 18.392C103.271 18.392 102.447 18.728 101.791 19.4C101.135 20.072 100.711 21 100.519 22.184Z" fill="white"/>
<path d="M21.8 21V15H23.8V17.6L28.8 12.6L30.2 14L25.2 19H27.8V21H21.8ZM28.95 31C26.8 31 24.7043 30.5207 22.663 29.562C20.621 28.604 18.8127 27.3373 17.238 25.762C15.6627 24.1873 14.396 22.379 13.438 20.337C12.4793 18.2957 12 16.2 12 14.05C12 13.75 12.1 13.5 12.3 13.3C12.5 13.1 12.75 13 13.05 13H17.1C17.3333 13 17.5417 13.075 17.725 13.225C17.9083 13.375 18.0167 13.5667 18.05 13.8L18.7 17.3C18.7333 17.5333 18.7293 17.7457 18.688 17.937C18.646 18.129 18.55 18.3 18.4 18.45L16 20.9C16.7 22.1 17.575 23.225 18.625 24.275C19.675 25.325 20.8333 26.2333 22.1 27L24.45 24.65C24.6 24.5 24.796 24.3873 25.038 24.312C25.2793 24.2373 25.5167 24.2167 25.75 24.25L29.2 24.95C29.4333 25 29.625 25.1123 29.775 25.287C29.925 25.4623 30 25.6667 30 25.9V29.95C30 30.25 29.9 30.5 29.7 30.7C29.5 30.9 29.25 31 28.95 31Z" fill="white"/>
</svg>
