<svg width="206" height="24" viewBox="0 0 206 24" fill="none" xmlns="http://www.w3.org/2000/svg">
<path d="M96.46 6C95.69 6.35 94.86 6.58 94 6.69C94.88 6.16 95.56 5.32 95.88 4.31C95.05 4.81 94.13 5.16 93.16 5.36C92.37 4.5 91.26 4 90 4C87.65 4 85.73 5.92 85.73 8.29C85.73 8.63 85.77 8.96 85.84 9.27C82.28 9.09 79.11 7.38 77 4.79C76.63 5.42 76.42 6.16 76.42 6.94C76.42 8.43 77.17 9.75 78.33 10.5C77.62 10.5 76.96 10.3 76.38 10V10.03C76.38 12.11 77.86 13.85 79.82 14.24C79.1908 14.4122 78.5301 14.4362 77.89 14.31C78.1616 15.1625 78.6936 15.9084 79.4111 16.4429C80.1285 16.9775 80.9955 17.2737 81.89 17.29C80.3737 18.4904 78.494 19.1393 76.56 19.13C76.22 19.13 75.88 19.11 75.54 19.07C77.44 20.29 79.7 21 82.12 21C90 21 94.33 14.46 94.33 8.79C94.33 8.6 94.33 8.42 94.32 8.23C95.16 7.63 95.88 6.87 96.46 6Z" fill="white"/>
<path d="M44.8 2H53.2C56.4 2 59 4.6 59 7.8V16.2C59 17.7383 58.3889 19.2135 57.3012 20.3012C56.2135 21.3889 54.7383 22 53.2 22H44.8C41.6 22 39 19.4 39 16.2V7.8C39 6.26174 39.6111 4.78649 40.6988 3.69878C41.7865 2.61107 43.2617 2 44.8 2ZM44.6 4C43.6452 4 42.7295 4.37928 42.0544 5.05442C41.3793 5.72955 41 6.64522 41 7.6V16.4C41 18.39 42.61 20 44.6 20H53.4C54.3548 20 55.2705 19.6207 55.9456 18.9456C56.6207 18.2705 57 17.3548 57 16.4V7.6C57 5.61 55.39 4 53.4 4H44.6ZM54.25 5.5C54.5815 5.5 54.8995 5.6317 55.1339 5.86612C55.3683 6.10054 55.5 6.41848 55.5 6.75C55.5 7.08152 55.3683 7.39946 55.1339 7.63388C54.8995 7.8683 54.5815 8 54.25 8C53.9185 8 53.6005 7.8683 53.3661 7.63388C53.1317 7.39946 53 7.08152 53 6.75C53 6.41848 53.1317 6.10054 53.3661 5.86612C53.6005 5.6317 53.9185 5.5 54.25 5.5ZM49 7C50.3261 7 51.5979 7.52678 52.5355 8.46447C53.4732 9.40215 54 10.6739 54 12C54 13.3261 53.4732 14.5979 52.5355 15.5355C51.5979 16.4732 50.3261 17 49 17C47.6739 17 46.4021 16.4732 45.4645 15.5355C44.5268 14.5979 44 13.3261 44 12C44 10.6739 44.5268 9.40215 45.4645 8.46447C46.4021 7.52678 47.6739 7 49 7ZM49 9C48.2044 9 47.4413 9.31607 46.8787 9.87868C46.3161 10.4413 46 11.2044 46 12C46 12.7956 46.3161 13.5587 46.8787 14.1213C47.4413 14.6839 48.2044 15 49 15C49.7956 15 50.5587 14.6839 51.1213 14.1213C51.6839 13.5587 52 12.7956 52 12C52 11.2044 51.6839 10.4413 51.1213 9.87868C50.5587 9.31607 49.7956 9 49 9Z" fill="white"/>
<path d="M19 3C19.5304 3 20.0391 3.21071 20.4142 3.58579C20.7893 3.96086 21 4.46957 21 5V19C21 19.5304 20.7893 20.0391 20.4142 20.4142C20.0391 20.7893 19.5304 21 19 21H5C4.46957 21 3.96086 20.7893 3.58579 20.4142C3.21071 20.0391 3 19.5304 3 19V5C3 4.46957 3.21071 3.96086 3.58579 3.58579C3.96086 3.21071 4.46957 3 5 3H19ZM18.5 18.5V13.2C18.5 12.3354 18.1565 11.5062 17.5452 10.8948C16.9338 10.2835 16.1046 9.94 15.24 9.94C14.39 9.94 13.4 10.46 12.92 11.24V10.13H10.13V18.5H12.92V13.57C12.92 12.8 13.54 12.17 14.31 12.17C14.6813 12.17 15.0374 12.3175 15.2999 12.5801C15.5625 12.8426 15.71 13.1987 15.71 13.57V18.5H18.5ZM6.88 8.56C7.32556 8.56 7.75288 8.383 8.06794 8.06794C8.383 7.75288 8.56 7.32556 8.56 6.88C8.56 5.95 7.81 5.19 6.88 5.19C6.43178 5.19 6.00193 5.36805 5.68499 5.68499C5.36805 6.00193 5.19 6.43178 5.19 6.88C5.19 7.81 5.95 8.56 6.88 8.56ZM8.27 18.5V10.13H5.5V18.5H8.27Z" fill="white"/>
<path d="M123 2C121.687 2 120.386 2.25866 119.173 2.7612C117.96 3.26375 116.858 4.00035 115.929 4.92893C114.054 6.8043 113 9.34784 113 12C113 16.42 115.87 20.17 119.84 21.5C120.34 21.58 120.5 21.27 120.5 21V19.31C117.73 19.91 117.14 17.97 117.14 17.97C116.68 16.81 116.03 16.5 116.03 16.5C115.12 15.88 116.1 15.9 116.1 15.9C117.1 15.97 117.63 16.93 117.63 16.93C118.5 18.45 119.97 18 120.54 17.76C120.63 17.11 120.89 16.67 121.17 16.42C118.95 16.17 116.62 15.31 116.62 11.5C116.62 10.39 117 9.5 117.65 8.79C117.55 8.54 117.2 7.5 117.75 6.15C117.75 6.15 118.59 5.88 120.5 7.17C121.29 6.95 122.15 6.84 123 6.84C123.85 6.84 124.71 6.95 125.5 7.17C127.41 5.88 128.25 6.15 128.25 6.15C128.8 7.5 128.45 8.54 128.35 8.79C129 9.5 129.38 10.39 129.38 11.5C129.38 15.32 127.04 16.16 124.81 16.41C125.17 16.72 125.5 17.33 125.5 18.26V21C125.5 21.27 125.66 21.59 126.17 21.5C130.14 20.16 133 16.42 133 12C133 10.6868 132.741 9.38642 132.239 8.17317C131.736 6.95991 131 5.85752 130.071 4.92893C129.142 4.00035 128.04 3.26375 126.827 2.7612C125.614 2.25866 124.313 2 123 2Z" fill="white"/>
<path d="M193.871 21.764C192.681 21.764 191.887 21.203 191.178 20.708C190.675 20.351 190.202 20.012 189.645 19.918C189.38 19.8724 189.111 19.8503 188.842 19.852C188.37 19.852 187.995 19.923 187.728 19.977C187.558 20.007 187.416 20.035 187.304 20.035C187.188 20.035 187.041 20.003 186.984 19.807C186.934 19.647 186.903 19.495 186.872 19.348C186.792 18.978 186.725 18.751 186.586 18.728C185.097 18.501 184.206 18.158 184.032 17.752C184.018 17.708 184.001 17.662 184.001 17.627C183.991 17.502 184.081 17.4 184.206 17.377C185.387 17.181 186.448 16.553 187.344 15.519C188.04 14.716 188.379 13.94 188.41 13.856C188.41 13.846 188.419 13.846 188.419 13.846C188.589 13.495 188.624 13.196 188.521 12.951C188.33 12.491 187.696 12.295 187.264 12.161C187.153 12.131 187.059 12.095 186.979 12.068C186.609 11.921 185.993 11.608 186.074 11.176C186.132 10.864 186.546 10.641 186.885 10.641C186.979 10.641 187.059 10.655 187.125 10.691C187.505 10.864 187.848 10.953 188.142 10.953C188.508 10.953 188.682 10.815 188.726 10.771C188.717 10.5732 188.705 10.3755 188.691 10.178C188.601 8.813 188.499 7.119 188.931 6.148C190.229 3.241 192.984 3.008 193.8 3.008L194.156 3H194.206C195.021 3 197.776 3.227 199.074 6.139C199.511 7.11 199.404 8.809 199.314 10.169L199.306 10.236C199.296 10.418 199.283 10.592 199.274 10.771C199.319 10.806 199.479 10.94 199.809 10.944C200.095 10.936 200.407 10.842 200.763 10.681C200.862 10.6384 200.968 10.6159 201.075 10.615C201.2 10.615 201.325 10.645 201.432 10.681H201.441C201.74 10.793 201.936 11.002 201.936 11.221C201.945 11.426 201.784 11.738 201.022 12.046C200.942 12.076 200.848 12.113 200.737 12.139C200.313 12.269 199.68 12.474 199.479 12.929C199.368 13.169 199.413 13.477 199.582 13.824C199.582 13.834 199.591 13.834 199.591 13.834C199.64 13.958 200.928 16.883 203.795 17.36C203.854 17.3699 203.907 17.4006 203.944 17.4466C203.982 17.4926 204.002 17.5506 204 17.61C204.001 17.6549 203.99 17.6993 203.969 17.739C203.795 18.149 202.912 18.483 201.414 18.715C201.276 18.737 201.209 18.965 201.129 19.335C201.097 19.4892 201.06 19.6423 201.017 19.794C200.973 19.941 200.879 20.021 200.719 20.021H200.696C200.554 20.0181 200.412 20.0017 200.273 19.972C199.906 19.8939 199.533 19.855 199.158 19.856C198.889 19.8566 198.621 19.879 198.356 19.923C197.803 20.013 197.326 20.356 196.822 20.713C196.105 21.203 195.307 21.764 194.125 21.764H193.871Z" fill="white"/>
<path d="M169 12C169 6.48 164.52 2 159 2C153.48 2 149 6.48 149 12C149 16.84 152.44 20.87 157 21.8V15H155V12H157V9.5C157 7.57 158.57 6 160.5 6H163V9H161C160.45 9 160 9.45 160 10V12H163V15H160V21.95C165.05 21.45 169 17.19 169 12Z" fill="white"/>
</svg>
