<svg width="47" height="47" viewBox="0 0 47 47" fill="none" xmlns="http://www.w3.org/2000/svg">
<path d="M35.25 9.79164H37.2083V11.75C37.2083 12.2694 37.4146 12.7675 37.7819 13.1347C38.1492 13.502 38.6473 13.7083 39.1667 13.7083C39.686 13.7083 40.1842 13.502 40.5514 13.1347C40.9187 12.7675 41.125 12.2694 41.125 11.75V9.79164H43.0833C43.6027 9.79164 44.1008 9.58532 44.4681 9.21806C44.8353 8.8508 45.0417 8.35269 45.0417 7.83331C45.0417 7.31392 44.8353 6.81581 44.4681 6.44856C44.1008 6.0813 43.6027 5.87497 43.0833 5.87497H41.125V3.91664C41.125 3.39726 40.9187 2.89915 40.5514 2.53189C40.1842 2.16463 39.686 1.95831 39.1667 1.95831C38.6473 1.95831 38.1492 2.16463 37.7819 2.53189C37.4146 2.89915 37.2083 3.39726 37.2083 3.91664V5.87497H35.25C34.7306 5.87497 34.2325 6.0813 33.8652 6.44856C33.498 6.81581 33.2917 7.31392 33.2917 7.83331C33.2917 8.35269 33.498 8.8508 33.8652 9.21806C34.2325 9.58532 34.7306 9.79164 35.25 9.79164ZM13.7083 13.7083V33.2916C13.7083 33.811 13.9146 34.3091 14.2819 34.6764C14.6492 35.0437 15.1473 35.25 15.6667 35.25C16.186 35.25 16.6841 35.0437 17.0514 34.6764C17.4187 34.3091 17.625 33.811 17.625 33.2916V13.7083C17.625 13.1889 17.4187 12.6908 17.0514 12.3236C16.6841 11.9563 16.186 11.75 15.6667 11.75C15.1473 11.75 14.6492 11.9563 14.2819 12.3236C13.9146 12.6908 13.7083 13.1889 13.7083 13.7083ZM42.3 17.625C42.0479 17.6764 41.8085 17.7769 41.5953 17.9209C41.3821 18.0648 41.1994 18.2494 41.0575 18.4639C40.9157 18.6785 40.8175 18.919 40.7686 19.1715C40.7197 19.4241 40.721 19.6838 40.7725 19.9358C41.5371 23.6492 41.0839 27.5102 39.4802 30.9456C37.8765 34.381 35.2078 37.2078 31.8702 39.0062C28.5326 40.8046 24.704 41.4789 20.9528 40.9289C17.2016 40.3789 13.7277 38.6339 11.0469 35.9531C8.36602 33.2722 6.62108 29.7984 6.07108 26.0472C5.52108 22.296 6.19534 18.4674 7.99377 15.1298C9.7922 11.7922 12.6189 9.12345 16.0544 7.51975C19.4898 5.91604 23.3508 5.46286 27.0642 6.22747C27.5835 6.33135 28.1229 6.22465 28.5636 5.93084C29.0043 5.63703 29.3103 5.18019 29.4142 4.66081C29.518 4.14142 29.4113 3.60205 29.1175 3.16134C28.8237 2.72063 28.3669 2.41468 27.8475 2.31081C26.4143 2.04379 24.9574 1.92566 23.5 1.95831C19.2395 1.95831 15.0746 3.2217 11.5321 5.58873C7.98957 7.95576 5.22852 11.3201 3.59808 15.2563C1.96765 19.1926 1.54105 23.5239 2.37224 27.7025C3.20343 31.8812 5.25508 35.7196 8.26773 38.7322C11.2804 41.7449 15.1187 43.7965 19.2974 44.6277C23.4761 45.4589 27.8074 45.0323 31.7436 43.4019C35.6799 41.7714 39.0442 39.0104 41.4112 35.4679C43.7783 31.9254 45.0417 27.7605 45.0417 23.5C45.0458 22.0529 44.9014 20.6092 44.6108 19.1916C44.5639 18.9361 44.4666 18.6924 44.3246 18.4748C44.1826 18.2572 43.9987 18.07 43.7836 17.9242C43.5685 17.7784 43.3266 17.6769 43.0719 17.6255C42.8172 17.5741 42.5548 17.5739 42.3 17.625ZM21.5417 17.625V19.5833C21.5503 21.0326 22.0943 22.4275 23.0692 23.5C22.0943 24.5724 21.5503 25.9674 21.5417 27.4166V29.375C21.5417 30.9331 22.1606 32.4275 23.2624 33.5292C24.3642 34.631 25.8585 35.25 27.4167 35.25H29.375C30.9331 35.25 32.4275 34.631 33.5292 33.5292C34.631 32.4275 35.25 30.9331 35.25 29.375V27.4166C35.2414 25.9674 34.6973 24.5724 33.7225 23.5C34.6973 22.4275 35.2414 21.0326 35.25 19.5833V17.625C35.25 16.0668 34.631 14.5725 33.5292 13.4707C32.4275 12.3689 30.9331 11.75 29.375 11.75H27.4167C25.8585 11.75 24.3642 12.3689 23.2624 13.4707C22.1606 14.5725 21.5417 16.0668 21.5417 17.625ZM31.3333 29.375C31.3333 29.8944 31.127 30.3925 30.7597 30.7597C30.3925 31.127 29.8944 31.3333 29.375 31.3333H27.4167C26.8973 31.3333 26.3992 31.127 26.0319 30.7597C25.6646 30.3925 25.4583 29.8944 25.4583 29.375V27.4166C25.4583 26.8973 25.6646 26.3991 26.0319 26.0319C26.3992 25.6646 26.8973 25.4583 27.4167 25.4583H29.375C29.8944 25.4583 30.3925 25.6646 30.7597 26.0319C31.127 26.3991 31.3333 26.8973 31.3333 27.4166V29.375ZM31.3333 17.625V19.5833C31.3333 20.1027 31.127 20.6008 30.7597 20.9681C30.3925 21.3353 29.8944 21.5416 29.375 21.5416H27.4167C26.8973 21.5416 26.3992 21.3353 26.0319 20.9681C25.6646 20.6008 25.4583 20.1027 25.4583 19.5833V17.625C25.4583 17.1056 25.6646 16.6075 26.0319 16.2402C26.3992 15.873 26.8973 15.6666 27.4167 15.6666H29.375C29.8944 15.6666 30.3925 15.873 30.7597 16.2402C31.127 16.6075 31.3333 17.1056 31.3333 17.625Z" fill="#F24E1E"/>
</svg>
